<svg xmlns="http://www.w3.org/2000/svg" width="80" height="28" role="img" aria-label="SQLD">
  <title>SQLD</title>
  <rect width="80" height="28" fill="#F29111"/>
  <g transform="translate(8, 3.0) scale(0.9166666666666666)">
    <path fill="white" d="M12 2C6.48 2 2 6.48 2 12s4.48 10 10 10 10-4.48 10-10S17.52 2 12 2zm0 18c-4.41 0-8-3.59-8-8s3.59-8 8-8 8 3.59 8 8-3.59 8 8 8zM12 6c-3.31 0-6 2.69-6 6s2.69 6 6 6 6-2.69 6-6-2.69-6-6-6z"/>
  </g>
  <text x="54.0" y="18.0" 
        font-family="Verdana, Geneva, sans-serif" font-size="11" font-weight="bold" fill="white" 
        text-anchor="middle">SQLD</text>
</svg>