<svg xmlns="http://www.w3.org/2000/svg" width="74" height="40" viewBox="0 0 74 40">
        
    <defs>
        <radialGradient id="logo-glow" cx="50%" cy="50%" r="50%" fx="50%" fy="50%">
            <stop offset="0%" stop-color="white" stop-opacity="0.9"/>
            <stop offset="70%" stop-color="white" stop-opacity="0.2"/>
            <stop offset="100%" stop-color="#2D2D2D" stop-opacity="0"/>
        </radialGradient>
    </defs>
    
        <rect width="74" height="40" rx="4" fill="FFA500"/>
        <circle cx="20" cy="20" r="14" fill="url(#logo-glow)" />
        <svg x="0" y="0" width="28" height="28" viewBox="0 0 40 40"><path fill="#fff" transform="scale(1.1) translate(6,6)" d="M12 2C6.48 2 2 6.48 2 12s4.48 10 10 10 10-4.48 10-10S17.52 2 12 2zm0 18c-4.41 0-8-3.59-8-8s3.59-8 8-8 8 3.59 8 8-3.59 8 8 8zM12 6c-3.31 0-6 2.69-6 6s2.69 6 6 6 6-2.69 6-6-2.69-6-6-6z"/></svg>
        <text x="47.0" y="25" text-anchor="middle" font-family="Verdana, Geneva, sans-serif" font-size="11" fill="#fff" font-weight="bold">SQLD</text>
    </svg>